<?xml version="1.0" encoding="iso-8859-1"?>
<!-- Generator: Adobe Illustrator 16.0.0, SVG Export Plug-In . SVG Version: 6.00 Build 0)  -->
<!DOCTYPE svg PUBLIC "-//W3C//DTD SVG 1.1//EN" "http://www.w3.org/Graphics/SVG/1.1/DTD/svg11.dtd">
<svg version="1.1" id="Capa_1" xmlns="http://www.w3.org/2000/svg" xmlns:xlink="http://www.w3.org/1999/xlink" x="0px" y="0px"
	 width="612.035px" height="612.035px" viewBox="0 0 612.035 612.035" style="enable-background:new 0 0 612.035 612.035;"
	 xml:space="preserve">
<g>
	<g>
		<path d="M430.9,275.39h-76.697c-10.148-15.943-27.885-26.583-48.216-26.583c-31.596,0-57.203,25.598-57.203,57.203
			c0,1.724,0.361,3.351,0.501,5.03l-93.432,72.011c-13.375,10.314-15.864,29.537-5.558,42.931
			c6.042,7.826,15.107,11.933,24.271,11.933c6.516,0,13.094-2.075,18.678-6.367l93.335-71.923
			c6.077,2.199,12.558,3.605,19.417,3.605c20.331,0,38.067-10.648,48.233-26.609H430.9c16.901,0,30.61-13.7,30.61-30.61
			C461.519,289.09,447.801,275.39,430.9,275.39z"/>
		<path d="M305.996,107.73c11.282,0,20.41-9.137,20.41-20.41V20.41c0-11.273-9.128-20.41-20.41-20.41s-20.41,9.137-20.41,20.41
			v66.91C285.585,98.594,294.713,107.73,305.996,107.73z"/>
		<path d="M591.612,285.59h-66.91c-11.282,0-20.41,9.137-20.41,20.41s9.128,20.41,20.41,20.41h66.91
			c11.282,0,20.41-9.137,20.41-20.41C612.013,294.735,602.885,285.59,591.612,285.59z"/>
		<path d="M305.996,504.305c-11.282,0-20.41,9.137-20.41,20.41v66.91c0,11.273,9.128,20.41,20.41,20.41s20.41-9.137,20.41-20.41
			v-66.91C326.406,513.45,317.278,504.305,305.996,504.305z"/>
		<path d="M107.744,306c0-11.273-9.128-20.41-20.41-20.41h-66.91c-11.282,0-20.41,9.146-20.41,20.41
			c0,11.273,9.128,20.41,20.41,20.41h66.91C98.607,326.41,107.744,317.273,107.744,306z"/>
		<path d="M478.122,144.127c2.612,0,5.224-0.994,7.211-2.99l29.837-29.88c3.983-3.992,3.983-10.456,0-14.439
			c-3.983-3.966-10.447-3.975-14.431,0.009l-29.837,29.881c-3.983,3.992-3.983,10.456,0,14.439
			C472.898,143.134,475.51,144.127,478.122,144.127z"/>
		<path d="M485.333,470.871c-3.983-3.983-10.447-3.983-14.431,0c-3.983,3.975-3.983,10.447,0,14.431l29.837,29.863
			c1.996,1.987,4.6,2.989,7.211,2.989s5.224-0.993,7.211-2.989c3.983-3.975,3.983-10.447,0-14.431L485.333,470.871z"/>
		<path d="M126.711,470.845l-29.88,29.898c-3.984,3.983-3.984,10.456,0,14.431c1.996,1.987,4.607,2.989,7.21,2.989
			c2.612,0,5.224-0.993,7.22-2.989l29.88-29.898c3.984-3.983,3.984-10.456,0-14.431
			C137.158,466.861,130.704,466.861,126.711,470.845z"/>
		<path d="M126.711,141.146c1.987,1.996,4.608,2.99,7.211,2.99c2.612,0,5.223-0.994,7.21-2.99c3.984-3.984,3.984-10.447,0-14.431
			l-29.854-29.863c-3.983-3.983-10.447-3.983-14.43,0c-3.984,3.984-3.984,10.447,0,14.431L126.711,141.146z"/>
	</g>
</g>
<g>
</g>
<g>
</g>
<g>
</g>
<g>
</g>
<g>
</g>
<g>
</g>
<g>
</g>
<g>
</g>
<g>
</g>
<g>
</g>
<g>
</g>
<g>
</g>
<g>
</g>
<g>
</g>
<g>
</g>
</svg>
